<?xml version="1.0" encoding="utf-8"?>
<!-- Generator: Adobe Illustrator 26.3.1, SVG Export Plug-In . SVG Version: 6.00 Build 0)  -->
<svg version="1.1" id="Layer_1" xmlns="http://www.w3.org/2000/svg" xmlns:xlink="http://www.w3.org/1999/xlink" x="0px" y="0px"
	 viewBox="0 0 24 24" style="enable-background:new 0 0 24 24;" xml:space="preserve">
<style type="text/css">
	.st0{fill:#FFFFFF;}
</style>
<path class="st0" d="M19.7,3C20.4,3,21,3.6,21,4.3v15.4c0,0.7-0.6,1.3-1.3,1.3H4.3C3.6,21,3,20.4,3,19.7V4.3C3,3.6,3.6,3,4.3,3H19.7
	z M14.8,9.1c-1,0-2,0.5-2.6,1.4h0V9.3H9.6V18h2.7v-4.3c0-1.1,0.2-2.2,1.6-2.2c1.4,0,1.4,1.3,1.4,2.3V18H18v-4.8
	C18,10.9,17.5,9.1,14.8,9.1z M7.9,9.3H5.2V18h2.7L7.9,9.3L7.9,9.3z M6.6,5C5.7,5,5,5.7,5,6.6c0,0.9,0.7,1.6,1.6,1.6l0.1,0
	C7.5,8,8.1,7.4,8.1,6.6l0-0.1C8,5.6,7.4,5,6.6,5L6.6,5z"/>
</svg>
